<?xml version="1.0" encoding="UTF-8"?>
<svg version="1.1" xmlns="http://www.w3.org/2000/svg" width="785" height="358">
<path d="M0 0 C259.05 0 518.1 0 785 0 C785 118.14 785 236.28 785 358 C525.95 358 266.9 358 0 358 C0 239.86 0 121.72 0 0 Z " fill="#FEFEFE" transform="translate(0,0)"/>
<path d="M0 0 C3.65151416 1.63935111 6.79294099 3.61373067 10 6 C10.78117187 6.57621094 11.56234375 7.15242187 12.3671875 7.74609375 C20.97655405 14.71765151 27.28915241 24.97114321 29 36 C30.23480459 50.84852517 27.25789585 63.05492166 18 75 C9.87715066 84.17198447 -2.33634493 90.17852885 -14.54296875 91.3359375 C-27.01404811 91.46960395 -37.97150921 88.76542429 -48 81 C-48 80.34 -48 79.68 -48 79 C-48.5878125 78.75378906 -49.175625 78.50757813 -49.78125 78.25390625 C-56.58186954 74.41059838 -60.39682426 66.06928766 -63 59 C-63.35707031 58.08863281 -63.71414062 57.17726562 -64.08203125 56.23828125 C-65.16542738 52.41642852 -65.38390444 48.81699516 -65.375 44.875 C-65.37338867 44.12943848 -65.37177734 43.38387695 -65.37011719 42.61572266 C-65.16151657 33.09985316 -62.07832011 24.98021731 -57 17 C-55.68 17.33 -54.36 17.66 -53 18 C-54.55222236 22.00990777 -56.30377723 25.91048854 -58.09765625 29.81640625 C-61.98945046 39.2342113 -60.90511746 50.82553631 -57.32421875 60.1484375 C-51.32808887 73.0604576 -43.96088833 79.51155042 -30.85546875 84.86328125 C-21.17796354 88.07751558 -9.26001972 86.97067301 0 83 C2.45106017 81.5815624 4.7456726 80.07841246 7.02734375 78.40234375 C9 77 9 77 11.12890625 76.06640625 C13.49923462 74.71546753 13.93682078 73.47304732 15 71 C15.78481917 69.84946577 16.57683916 68.70381916 17.375 67.5625 C23.75000599 57.29060608 25.33987213 45.83154947 24 34 C21.1939975 22.49269168 13.09195386 12.94239098 3.04296875 6.8046875 C2.43066406 6.49789062 1.81835938 6.19109375 1.1875 5.875 C0.28064453 5.40707031 0.28064453 5.40707031 -0.64453125 4.9296875 C-7.51581906 2.21763692 -13.69995996 1.72922347 -21 1.875 C-21.87011719 1.88402344 -22.74023438 1.89304688 -23.63671875 1.90234375 C-25.7579342 1.92565381 -27.87900562 1.96151421 -30 2 C-30 1.01 -30 0.02 -30 -1 C-21.45866257 -6.03257205 -8.87618999 -2.76403096 0 0 Z " fill="#7E7F82" transform="translate(176,127)"/>
<path d="M0 0 C1.98 0 3.96 0 6 0 C6 1.98 6 3.96 6 6 C6.721875 6.061875 7.44375 6.12375 8.1875 6.1875 C11.87798635 7.2536405 13.49572729 9.14791164 16 12 C17.35439668 14.70879335 17.06501451 17.00933268 17 20 C14.75 19.9375 14.75 19.9375 12 19 C10.39140567 16.78068511 9.26633732 14.44534103 8 12 C7.34 11.67 6.68 11.34 6 11 C6 15.62 6 20.24 6 25 C7.051875 25.061875 8.10375 25.12375 9.1875 25.1875 C13.77201708 26.16452823 15.36654641 27.13211504 18 31 C18.14757546 35.64862685 17.60060479 38.65799469 14.875 42.4375 C11.49813325 45.44731602 9.45478832 45.82530242 5 46 C5 47.98 5 49.96 5 52 C3.68 52 2.36 52 1 52 C1 49.69 1 47.38 1 45 C-0.0725 44.9175 -1.145 44.835 -2.25 44.75 C-6.35088558 43.92982288 -7.49838425 43.24283524 -10 40 C-11.93529415 36.90352936 -12 35.86069323 -12 32 C-10.02 32 -8.04 32 -6 32 C-5.34 34.31 -4.68 36.62 -4 39 C-2.68 39.33 -1.36 39.66 0 40 C0 36.37 0 32.74 0 29 C-1.65 28.67 -3.3 28.34 -5 28 C-8.28910202 26.68435919 -8.94125896 26.08811156 -11 23 C-11.78112339 17.68836093 -11.93875633 13.38052402 -8.875 8.875 C-5.79218363 6.86446758 -3.64629065 6.25439237 0 6 C0 4.02 0 2.04 0 0 Z " fill="#7D7E7F" transform="translate(155,145)"/>
<path d="M0 0 C6.44250926 5.49834842 9.62679773 13.01711195 12.265625 20.93359375 C13.02723713 32.63245546 12.77808257 42.35467221 5.265625 51.93359375 C3.780625 51.43859375 3.780625 51.43859375 2.265625 50.93359375 C2.53375 50.31484375 2.801875 49.69609375 3.078125 49.05859375 C3.47 48.02734375 3.861875 46.99609375 4.265625 45.93359375 C4.52988281 45.25167969 4.79414063 44.56976563 5.06640625 43.8671875 C7.96471828 35.52938939 8.97125023 25.91071666 6.015625 17.43359375 C4.32245113 14.04724601 2.44407215 11.02558325 0.265625 7.93359375 C-0.229375 6.81984375 -0.229375 6.81984375 -0.734375 5.68359375 C-2.05105334 3.37940666 -3.33827084 3.05066831 -5.734375 1.93359375 C-6.55035156 1.51980469 -7.36632812 1.10601562 -8.20703125 0.6796875 C-9.06167969 0.24785156 -9.91632813 -0.18398437 -10.796875 -0.62890625 C-11.65410156 -1.06332031 -12.51132813 -1.49773437 -13.39453125 -1.9453125 C-20.48144977 -5.34088114 -31.70922443 -5.51996437 -39.171875 -2.94140625 C-40.97144573 -2.10860643 -40.97144573 -2.10860643 -42.734375 -1.06640625 C-43.46914062 -0.67582031 -44.20390625 -0.28523437 -44.9609375 0.1171875 C-52.92826368 4.82030814 -58.39436201 11.94882689 -60.734375 20.93359375 C-60.9458305 23.60836851 -61.06897096 26.13908657 -61.046875 28.80859375 C-61.04123535 29.51894775 -61.0355957 30.22930176 -61.02978516 30.96118164 C-60.9074263 36.23290998 -60.38063796 40.37448903 -57.734375 44.93359375 C-57.29738281 45.6915625 -56.86039063 46.44953125 -56.41015625 47.23046875 C-51.19963294 55.60012823 -44.38890993 61.32752908 -34.734375 63.93359375 C-31.60362669 64.16400276 -28.49633681 64.12363443 -25.359375 64.05859375 C-24.52792969 64.04957031 -23.69648438 64.04054688 -22.83984375 64.03125 C-20.80456163 64.00785595 -18.76942936 63.971991 -16.734375 63.93359375 C-17.109375 65.87109375 -17.109375 65.87109375 -17.734375 67.93359375 C-23.8839838 71.00839815 -32.34723542 69.01694116 -38.609375 67.18359375 C-43.17080572 65.63412086 -46.94999788 63.97955582 -50.734375 60.93359375 C-51.724375 60.21171875 -52.714375 59.48984375 -53.734375 58.74609375 C-60.35601103 53.06295731 -65.08656779 44.74346955 -65.91455078 36.03955078 C-66.50048001 26.9985998 -66.28486882 19.00756021 -61.734375 10.93359375 C-61.156875 9.90234375 -60.579375 8.87109375 -59.984375 7.80859375 C-44.14208076 -12.43433778 -20.83233481 -15.74329302 0 0 Z " fill="#767677" transform="translate(184.734375,141.06640625)"/>
<path d="M0 0 C5.2895276 3.202912 7.95369372 5.89981738 9.53125 11.89453125 C10.25399581 17.67649775 9.00510762 21.37851635 5.53125 25.89453125 C0.58125828 30.48232845 -3.4025991 31.26904456 -9.96875 31.1640625 C-14.54532202 30.67065083 -17.05831792 28.58555327 -19.94140625 25.12890625 C-22.71402379 21.20553659 -24.30290076 17.76611469 -23.94921875 12.91015625 C-22.69626934 7.65388067 -19.72119152 3.37516853 -15.21875 0.39453125 C-10.09089657 -2.06950222 -5.21708316 -2.33613059 0 0 Z " fill="#141414" transform="translate(367.46875,157.10546875)"/>
<path d="M0 0 C10.89 0 21.78 0 33 0 C33 3.3 33 6.6 33 10 C25.41 10 17.82 10 10 10 C10 10.99 10 11.98 10 13 C15.61 13 21.22 13 27 13 C27 14.32 27 15.64 27 17 C20.4 17 13.8 17 7 17 C7 13.7 7 10.4 7 7 C14.26 7 21.52 7 29 7 C29 5.68 29 4.36 29 3 C20.42 3 11.84 3 3 3 C3 10.92 3 18.84 3 27 C11.58 27 20.16 27 29 27 C29 25.68 29 24.36 29 23 C21.74 23 14.48 23 7 23 C7 22.01 7 21.02 7 20 C15.58 20 24.16 20 33 20 C33 23.3 33 26.6 33 30 C22.11 30 11.22 30 0 30 C0 20.1 0 10.2 0 0 Z " fill="#0F0F0F" transform="translate(576,157)"/>
<path d="M0 0 C4.2290362 -0.08725659 8.45784012 -0.1404789 12.6875 -0.1875 C13.88568359 -0.21263672 15.08386719 -0.23777344 16.31835938 -0.26367188 C17.47529297 -0.27333984 18.63222656 -0.28300781 19.82421875 -0.29296875 C20.88729248 -0.3086792 21.95036621 -0.32438965 23.0456543 -0.34057617 C26.42477331 0.04896775 28.27990964 0.99204546 31 3 C32.3899408 5.7798816 32.18488204 7.9186326 32 11 C31.14231033 13.57306901 30.5576314 14.64823196 28.26074219 16.09716797 C25.54865807 17.18024433 23.49457146 17.22771746 20.578125 17.1953125 C19.04091797 17.18564453 19.04091797 17.18564453 17.47265625 17.17578125 C16.40917969 17.15902344 15.34570312 17.14226562 14.25 17.125 C12.63158203 17.11146484 12.63158203 17.11146484 10.98046875 17.09765625 C8.32021751 17.0741142 5.66008051 17.03824397 3 17 C3 20.3 3 23.6 3 27 C3.99 27 4.98 27 6 27 C6 24.69 6 22.38 6 20 C10.38390904 19.65790305 14.62856587 19.45221483 19 20 C21.625 22.9375 21.625 22.9375 23 26 C23.99 26.33 24.98 26.66 26 27 C24.515 23.535 24.515 23.535 23 20 C25.25 20.0625 25.25 20.0625 28 21 C30.0898813 23.65742095 32 26.53550551 32 30 C30.23050905 30.10815225 28.45912513 30.18566083 26.6875 30.25 C25.70136719 30.29640625 24.71523438 30.3428125 23.69921875 30.390625 C21 30 21 30 19.14453125 28.109375 C18 26 18 26 18 24 C15.36 24 12.72 24 10 24 C10 25.98 10 27.96 10 30 C6.7 30 3.4 30 0 30 C0 24.39 0 18.78 0 13 C1.93746094 12.93941406 3.87492187 12.87882813 5.87109375 12.81640625 C8.39323759 12.73202226 10.91537257 12.6473732 13.4375 12.5625 C14.71689453 12.52318359 15.99628906 12.48386719 17.31445312 12.44335938 C19.13686523 12.38051758 19.13686523 12.38051758 20.99609375 12.31640625 C22.12200928 12.27974854 23.2479248 12.24309082 24.40795898 12.20532227 C26.92853441 12.28781955 26.92853441 12.28781955 28 11 C28.16666667 8.5 28.16666667 8.5 28 6 C26.28556781 4.28556781 23.99554759 4.76947033 21.65234375 4.68359375 C20.57275391 4.64169922 19.49316406 4.59980469 18.38085938 4.55664062 C16.67639648 4.49766602 16.67639648 4.49766602 14.9375 4.4375 C13.79732422 4.39431641 12.65714844 4.35113281 11.48242188 4.30664062 C8.65507805 4.20017161 5.82764262 4.09815793 3 4 C3 4.99 3 5.98 3 7 C10.26 7 17.52 7 25 7 C25 7.99 25 8.98 25 10 C16.75 10 8.5 10 0 10 C0 6.7 0 3.4 0 0 Z " fill="#171717" transform="translate(460,157)"/>
<path d="M0 0 C10.89 0 21.78 0 33 0 C33 3.3 33 6.6 33 10 C25.41 10 17.82 10 10 10 C10 11.32 10 12.64 10 14 C15.61 14 21.22 14 27 14 C27 14.99 27 15.98 27 17 C20.4 17 13.8 17 7 17 C7 13.7 7 10.4 7 7 C14.26 7 21.52 7 29 7 C29 5.68 29 4.36 29 3 C20.42 3 11.84 3 3 3 C3 10.92 3 18.84 3 27 C11.91 27 20.82 27 30 27 C30 25.68 30 24.36 30 23 C22.41 23 14.82 23 7 23 C7 22.01 7 21.02 7 20 C15.58 20 24.16 20 33 20 C33 23.3 33 26.6 33 30 C22.11 30 11.22 30 0 30 C0 20.1 0 10.2 0 0 Z " fill="#0A0A0A" transform="translate(234,157)"/>
<path d="M0 0 C0.97001953 0.01804688 1.94003906 0.03609375 2.93945312 0.0546875 C5.31423351 0.1014812 7.68850015 0.17321294 10.0625 0.25 C10.0625 3.55 10.0625 6.85 10.0625 10.25 C0.1625 10.745 0.1625 10.745 -9.9375 11.25 C-10.5975 12.9 -11.2575 14.55 -11.9375 16.25 C-11.2775 17.24 -10.6175 18.23 -9.9375 19.25 C-6.82139446 19.83592634 -6.82139446 19.83592634 -3.3125 19.9375 C-2.12398437 20.00324219 -0.93546875 20.06898438 0.2890625 20.13671875 C1.20429687 20.17410156 2.11953125 20.21148437 3.0625 20.25 C3.0625 21.24 3.0625 22.23 3.0625 23.25 C0.62433415 23.3309723 -1.81114384 23.39046972 -4.25 23.4375 C-5.28543945 23.47520508 -5.28543945 23.47520508 -6.34179688 23.51367188 C-11.42779369 23.58738197 -11.42779369 23.58738197 -13.85546875 21.98046875 C-15.06026997 20.05365668 -15.58810379 18.61987066 -15.9375 16.375 C-16.06125 15.71757812 -16.185 15.06015625 -16.3125 14.3828125 C-15.6697185 10.72699274 -13.85807175 9.415187 -10.9375 7.25 C-7.96850518 6.66328211 -5.13635131 6.77342805 -2.125 6.9375 C-1.33673828 6.96005859 -0.54847656 6.98261719 0.26367188 7.00585938 C2.19743929 7.06445839 4.13022167 7.15413173 6.0625 7.25 C6.0625 6.26 6.0625 5.27 6.0625 4.25 C3.33185053 4.33730853 0.6043381 4.44422124 -2.125 4.5625 C-2.89392578 4.58505859 -3.66285156 4.60761719 -4.45507812 4.63085938 C-9.04846706 4.84771465 -12.20974699 5.29447455 -15.9375 8.25 C-18.31705059 11.81932589 -18.46661482 13.83734981 -18.3984375 18.0234375 C-17.8498355 20.67346411 -17.11906354 21.53452505 -15.0625 23.25 C-10.35097886 26.26537353 -6.80863392 26.54036999 -1.3125 26.8125 C-0.51070312 26.85568359 0.29109375 26.89886719 1.1171875 26.94335938 C3.0987511 27.04951457 5.08060271 27.15026855 7.0625 27.25 C7.0625 24.94 7.0625 22.63 7.0625 20.25 C8.0525 20.25 9.0425 20.25 10.0625 20.25 C10.0625 23.55 10.0625 26.85 10.0625 30.25 C6.52000883 30.35825949 2.98084751 30.43744405 -0.5625 30.5 C-1.56152344 30.53351563 -2.56054688 30.56703125 -3.58984375 30.6015625 C-9.75277371 30.68319071 -13.22967986 30.33011079 -17.9375 26.25 C-18.535625 25.734375 -19.13375 25.21875 -19.75 24.6875 C-22.59403932 21.24471556 -22.27256329 16.98759789 -22.2109375 12.75390625 C-21.79752561 8.96823448 -20.50903267 7.01934288 -17.9375 4.25 C-11.95190622 -0.08167971 -7.25637662 -0.25791633 0 0 Z " fill="#111111" transform="translate(559.9375,156.75)"/>
<path d="M0 0 C10.39903846 -1.21153846 10.39903846 -1.21153846 14.16796875 1.640625 C15.81012671 3.74695587 17.0711389 5.49253261 18 8 C17.51717068 11.01040246 16.5023959 13.00938282 14.71484375 15.453125 C14.26689453 16.071875 13.81894531 16.690625 13.35742188 17.328125 C12.88884766 17.96234375 12.42027344 18.5965625 11.9375 19.25 C11.46505859 19.8996875 10.99261719 20.549375 10.50585938 21.21875 C9.34276471 22.81653662 8.17211399 24.40881803 7 26 C10.11715038 25.39623772 10.11715038 25.39623772 12.484375 23.37109375 C12.90203125 22.73300781 13.3196875 22.09492188 13.75 21.4375 C14.17796875 20.79683594 14.6059375 20.15617187 15.046875 19.49609375 C15.36140625 19.00238281 15.6759375 18.50867188 16 18 C19.08089673 20.77280706 20.68775452 23.06326356 22 27 C23.32 27 24.64 27 26 27 C25.48308594 26.33613281 24.96617187 25.67226562 24.43359375 24.98828125 C23.44552734 23.66376953 23.44552734 23.66376953 22.4375 22.3125 C21.77621094 21.44238281 21.11492187 20.57226562 20.43359375 19.67578125 C19 17 19 17 19.125 14.4375 C20.02647419 11.92625048 21.09277834 9.91092507 22.5625 7.6875 C23.01753906 6.99011719 23.47257812 6.29273438 23.94140625 5.57421875 C24.29074219 5.05472656 24.64007813 4.53523437 25 4 C23.35 4.66 21.7 5.32 20 6 C18.875 2.25 18.875 2.25 20 0 C23.96 0 27.92 0 32 0 C30.12703258 4.68241854 28.33583152 7.23050952 25.14453125 10.9375 C23.78720962 12.96103705 23.78720962 12.96103705 24.1015625 15.42578125 C25.16176721 18.46349821 26.63603284 20.61498527 28.5625 23.1875 C32 27.80080483 32 27.80080483 32 30 C27.96067147 30.28580155 24.02994957 30.45551292 20 30 C17.25 27.5 17.25 27.5 16 25 C15.5875 25.825 15.175 26.65 14.75 27.5 C10.82340746 31.06962958 7.61256118 30.39047804 2.484375 30.17578125 C1.66453125 30.11777344 0.8446875 30.05976563 0 30 C1.04033108 28.35332211 2.08235447 26.70771339 3.125 25.0625 C3.75535156 24.06089844 4.38570313 23.05929688 5.03515625 22.02734375 C6.26485341 20.13268112 7.53777227 18.2646329 8.87109375 16.44140625 C9.42925781 15.67699219 9.98742187 14.91257813 10.5625 14.125 C11.07941406 13.44695312 11.59632813 12.76890625 12.12890625 12.0703125 C13.29647238 9.91460769 13.29647238 9.91460769 12.15234375 7.2421875 C11.58193359 6.13230469 11.58193359 6.13230469 11 5 C10.01 5 9.02 5 8 5 C8.66 6.65 9.32 8.3 10 10 C9.34 10.66 8.68 11.32 8 12 C6.66382103 10.18959679 5.33112616 8.3766216 4 6.5625 C3.2575 5.55316406 2.515 4.54382813 1.75 3.50390625 C0 1 0 1 0 0 Z " fill="#131313" transform="translate(271,157)"/>
<path d="M0 0 C10.89 0 21.78 0 33 0 C33 3.3 33 6.6 33 10 C30.36 10 27.72 10 25 10 C25 9.01 25 8.02 25 7 C26.32 7 27.64 7 29 7 C29 6.01 29 5.02 29 4 C20.75 4 12.5 4 4 4 C4 4.99 4 5.98 4 7 C7.63 7 11.26 7 15 7 C15 13.6 15 20.2 15 27 C15.99 27 16.98 27 18 27 C18 20.4 18 13.8 18 7 C19.32 7 20.64 7 22 7 C22 14.59 22 22.18 22 30 C18.37 30 14.74 30 11 30 C11 23.4 11 16.8 11 10 C7.37 10 3.74 10 0 10 C0 6.7 0 3.4 0 0 Z " fill="#202020" transform="translate(421,157)"/>
<path d="M0 0 C4.20796686 -0.14570522 8.41528166 -0.23421087 12.625 -0.3125 C13.81480469 -0.35439453 15.00460937 -0.39628906 16.23046875 -0.43945312 C26.12423641 -0.57763424 26.12423641 -0.57763424 29.7890625 2.30078125 C32 5 32 5 32.75 8.5 C31.95724935 12.19950304 31.00971231 13.66686723 28.0546875 15.98779297 C23.71974129 18.12333087 18.84101663 17.50125682 14.125 17.3125 C13.05507813 17.28994141 11.98515625 17.26738281 10.8828125 17.24414062 C8.25460308 17.18547524 5.62711786 17.09580252 3 17 C3 20.3 3 23.6 3 27 C3.99 27 4.98 27 6 27 C6 24.69 6 22.38 6 20 C7.32 20 8.64 20 10 20 C10 23.3 10 26.6 10 30 C6.7 30 3.4 30 0 30 C0 24.72 0 19.44 0 14 C1.76988281 13.96261719 3.53976562 13.92523438 5.36328125 13.88671875 C7.67970912 13.821071 9.99611442 13.75462326 12.3125 13.6875 C13.47974609 13.66494141 14.64699219 13.64238281 15.84960938 13.61914062 C16.96787109 13.58369141 18.08613281 13.54824219 19.23828125 13.51171875 C20.7857605 13.47244263 20.7857605 13.47244263 22.36450195 13.43237305 C24.99856609 13.17698715 24.99856609 13.17698715 26.92260742 11.78051758 C28.50798445 9.61302843 28.50798445 9.61302843 27 5 C19.08 4.67 11.16 4.34 3 4 C3 4.99 3 5.98 3 7 C10.26 7 17.52 7 25 7 C25 7.99 25 8.98 25 10 C16.75 10 8.5 10 0 10 C0 6.7 0 3.4 0 0 Z " fill="#141414" transform="translate(310,157)"/>
<path d="M0 0 C0.99 0 1.98 0 3 0 C1.65788025 3.555782 0.07755303 6.79105167 -1.8203125 10.08203125 C-2.35527344 11.01337891 -2.89023437 11.94472656 -3.44140625 12.90429688 C-3.99699219 13.86400391 -4.55257813 14.82371094 -5.125 15.8125 C-5.68832031 16.79154297 -6.25164062 17.77058594 -6.83203125 18.77929688 C-8.21844415 21.18789555 -9.60785055 23.59471395 -11 26 C-10.01 26 -9.02 26 -8 26 C-4.04 19.07 -0.08 12.14 4 5 C4.99 5 5.98 5 7 5 C9.14663367 8.7912141 11.29217132 12.58304732 13.4375 16.375 C14.04916016 17.45523438 14.66082031 18.53546875 15.29101562 19.6484375 C15.87431641 20.6796875 16.45761719 21.7109375 17.05859375 22.7734375 C17.59798584 23.72653809 18.13737793 24.67963867 18.69311523 25.66162109 C19.49216491 27.09134233 20.26752704 28.53505407 21 30 C16.9020007 30.47058365 13.07982152 30.69409951 9 30 C6.27461704 27.75073816 4.99623603 25.36852307 4 22 C4.1875 19 4.1875 19 5 17 C7.74277578 20.19990508 9.6302836 23.00499382 11 27 C11.99 26.67 12.98 26.34 14 26 C10.04 19.07 10.04 19.07 6 12 C2.88960604 15.11039396 0.97235526 18.3221031 -1.125 22.125 C-4.89527027 28.89527027 -4.89527027 28.89527027 -6 30 C-7.85287502 30.07226502 -9.70833878 30.0838122 -11.5625 30.0625 C-12.57441406 30.05347656 -13.58632813 30.04445312 -14.62890625 30.03515625 C-15.41136719 30.02355469 -16.19382812 30.01195312 -17 30 C-14.77401904 24.09808106 -11.60870618 18.78476696 -8.5 13.3125 C-7.90574219 12.25482422 -7.31148438 11.19714844 -6.69921875 10.10742188 C-6.12816406 9.09873047 -5.55710937 8.09003906 -4.96875 7.05078125 C-4.18661133 5.66886597 -4.18661133 5.66886597 -3.38867188 4.2590332 C-2 2 -2 2 0 0 Z " fill="#111111" transform="translate(516,157)"/>
<path d="M0 0 C2.45862401 -0.05383848 4.9160755 -0.09359038 7.375 -0.125 C8.42300781 -0.15013672 8.42300781 -0.15013672 9.4921875 -0.17578125 C11.32897486 -0.19344267 13.16601963 -0.10303261 15 0 C15.66 0.66 16.32 1.32 17 2 C16.92495885 6.50246924 16.56967044 9.76456637 13.875 13.4375 C10.49813325 16.44731602 8.45478832 16.82530242 4 17 C4 18.98 4 20.96 4 23 C2.68 23 1.36 23 0 23 C0 20.69 0 18.38 0 16 C-1.0725 15.9175 -2.145 15.835 -3.25 15.75 C-7.35088558 14.92982288 -8.49838425 14.24283524 -11 11 C-12.93529415 7.90352936 -13 6.86069323 -13 3 C-11.02 3 -9.04 3 -7 3 C-6.6596875 4.670625 -6.6596875 4.670625 -6.3125 6.375 C-5.879375 7.57125 -5.44625 8.7675 -5 10 C-2.525 10.99 -2.525 10.99 0 12 C0 8.04 0 4.08 0 0 Z " fill="#6C6D71" transform="translate(156,174)"/>
<path d="M0 0 C3.65151416 1.63935111 6.79294099 3.61373067 10 6 C10.78117187 6.57621094 11.56234375 7.15242187 12.3671875 7.74609375 C19.98670124 13.91610403 25.57842386 22.45273332 28 32 C28.22194643 35.13132076 28.19004188 38.23798022 28.125 41.375 C28.11597656 42.20644531 28.10695312 43.03789062 28.09765625 43.89453125 C28.0742622 45.92981337 28.03839725 47.96494564 28 50 C27.01 50.33 26.02 50.66 25 51 C24.98582031 49.91203125 24.97164062 48.8240625 24.95703125 47.703125 C24.59432324 34.00933429 21.95199337 24.37182398 12.28125 14.15625 C8.85405898 10.91685027 5.41838105 7.99489408 1.1875 5.875 C0.58292969 5.56304687 -0.02164063 5.25109375 -0.64453125 4.9296875 C-7.51581906 2.21763692 -13.69995996 1.72922347 -21 1.875 C-21.87011719 1.88402344 -22.74023438 1.89304688 -23.63671875 1.90234375 C-25.7579342 1.92565381 -27.87900562 1.96151421 -30 2 C-30 1.01 -30 0.02 -30 -1 C-21.45866257 -6.03257205 -8.87618999 -2.76403096 0 0 Z " fill="#717172" transform="translate(176,127)"/>
<path d="M0 0 C3.96 0 7.92 0 12 0 C12.66 1.32 13.32 2.64 14 4 C13.67 4.66 13.34 5.32 13 6 C12.34 6 11.68 6 11 6 C11 5.34 11 4.68 11 4 C9.68 4 8.36 4 7 4 C7.5053125 4.57105469 8.010625 5.14210937 8.53125 5.73046875 C14.190713 12.7935684 14.87869166 18.10150352 14 27 C15.32 27 16.64 27 18 27 C17.93039062 26.16597656 17.86078125 25.33195312 17.7890625 24.47265625 C17.38765058 16.12902279 18.49460695 11.34103306 24 5 C23.01 5 22.02 5 21 5 C20.01 6.485 20.01 6.485 19 8 C18.01 9.485 18.01 9.485 17 11 C16.01 11 15.02 11 14 11 C14.97153342 6.56431205 16.27986576 2.81335152 20 0 C24.06226747 -0.60828224 27.92357034 -0.40959341 32 0 C28.4227728 6.46652609 28.4227728 6.46652609 26.43359375 8.9765625 C21.29805854 15.58469697 21.0233637 21.78765915 21 30 C17.7 30 14.4 30 11 30 C11.04382813 29.15179688 11.08765625 28.30359375 11.1328125 27.4296875 C11.11080341 17.41555009 8.29750644 12.38669045 2.15234375 4.765625 C0 2 0 2 0 0 Z " fill="#111111" transform="translate(615,157)"/>
<path d="M0 0 C5.2895276 3.202912 7.95369372 5.89981738 9.53125 11.89453125 C10.25399581 17.67649775 9.00510762 21.37851635 5.53125 25.89453125 C0.58125828 30.48232845 -3.4025991 31.26904456 -9.96875 31.1640625 C-14.54532202 30.67065083 -17.05831792 28.58555327 -19.94140625 25.12890625 C-22.71402379 21.20553659 -24.30290076 17.76611469 -23.94921875 12.91015625 C-22.69626934 7.65388067 -19.72119152 3.37516853 -15.21875 0.39453125 C-10.09089657 -2.06950222 -5.21708316 -2.33613059 0 0 Z M-18.1171875 7.7265625 C-20.49295136 11.53739759 -19.97601429 15.55460343 -19.46875 19.89453125 C-18.08773801 23.500507 -16.9373767 24.58566365 -13.71875 26.70703125 C-9.94006569 28.08770436 -7.46435775 28.39398222 -3.46875 27.89453125 C0.45795595 25.78015112 3.16387715 23.66327999 5.53125 19.89453125 C6.33018471 15.85991097 6.45900262 11.69849468 4.546875 7.98046875 C2.31887678 5.18859444 -0.03023241 2.90585995 -3.46875 1.89453125 C-9.95779315 1.17352646 -13.75944894 2.88348339 -18.1171875 7.7265625 Z " fill="#171717" transform="translate(367.46875,157.10546875)"/>
<path d="M0 0 C1.91796875 0.22265625 1.91796875 0.22265625 4 1 C4.80078125 2.93359375 4.80078125 2.93359375 5.3125 5.4375 C7.91686589 15.31710537 14.21866215 22.09759695 22.5 27.6875 C28.53776115 30.8573246 33.70310017 31.26333285 40.375 31.125 C41.62216797 31.11146484 41.62216797 31.11146484 42.89453125 31.09765625 C44.92981337 31.0742622 46.96494564 31.03839725 49 31 C48.625 32.9375 48.625 32.9375 48 35 C41.8503912 38.0748044 33.38713958 36.08334741 27.125 34.25 C22.56356928 32.70052711 18.78437712 31.04596207 15 28 C13.515 26.9171875 13.515 26.9171875 12 25.8125 C5.7293756 20.43062552 1.80864214 12.99203406 0 5 C-0.1875 1.9375 -0.1875 1.9375 0 0 Z " fill="#7E8083" transform="translate(119,174)"/>
<path d="M0 0 C3.15591067 2.58210873 5.40902301 4.5280662 6.21875 8.6171875 C6.2730953 12.97839788 6.3000512 16.24129387 3.5 19.75 C-0.14328999 23.06208181 -1.71583868 24.10794803 -6.625 24.5625 C-11.58678443 24.13475996 -14.74977385 22.90024877 -18.125 19.1875 C-19.79369335 14.83035626 -20.04477062 10.84936699 -19.25 6.25 C-17.60116481 3.05047457 -15.27563708 1.00213386 -12.375 -1.125 C-7.67328643 -2.50785693 -4.31928681 -2.32576982 0 0 Z M-16.25 7.25 C-16.80919321 11.16435244 -16.60457139 13.45221437 -15 17.0625 C-13.08877028 19.45153715 -12.19084445 20.43309876 -9.25 21.25 C-4.97414311 21.17225715 -2.79554729 20.64465123 0.6875 18.125 C3.28004358 14.51115137 3.30529406 12.61302477 2.75 8.25 C1.91951953 5.68935188 1.24609306 4.63161004 -0.875 3 C-7.55409661 0.8908116 -12.18224414 1.27548359 -16.25 7.25 Z " fill="#EFEFEF" transform="translate(367.25,160.75)"/>
<path d="M0 0 C8.58 0 17.16 0 26 0 C26 1.32 26 2.64 26 4 C18.41 4 10.82 4 3 4 C3 4.99 3 5.98 3 7 C11.58 7 20.16 7 29 7 C29 4.69 29 2.38 29 0 C29.99 0 30.98 0 32 0 C32 3.3 32 6.6 32 10 C21.44 10 10.88 10 0 10 C0 6.7 0 3.4 0 0 Z " fill="#121212" transform="translate(383,167)"/>
<path d="M0 0 C1.32 0.33 2.64 0.66 4 1 C2.44777764 5.00990777 0.69622277 8.91048854 -1.09765625 12.81640625 C-2.93658447 17.26645332 -3.25121449 21.44730931 -3.5625 26.25 C-3.68818359 28.14492187 -3.68818359 28.14492187 -3.81640625 30.078125 C-3.87699219 31.04234375 -3.93757813 32.0065625 -4 33 C-4.99 33 -5.98 33 -7 33 C-7.33 33.99 -7.66 34.98 -8 36 C-8.5752322 22.51400059 -7.43097507 11.67724653 0 0 Z " fill="#8B8B8D" transform="translate(119,144)"/>
<path d="M0 0 C2.15502531 3.23253796 2.46856135 4.25150923 2 8 C0.875 9.8125 0.875 9.8125 -1 11 C-4.66762206 11.54624158 -6.3258758 11.47898298 -9.375 9.3125 C-11 7 -11 7 -11.5 4.4375 C-11 2 -11 2 -9.4375 0.125 C-5.94960462 -1.48479787 -3.66029097 -0.94896433 0 0 Z " fill="#F3F3F3" transform="translate(365,167)"/>
<path d="M0 0 C1.32 0 2.64 0 4 0 C3.59683075 6.31631828 1.28767869 10.64993984 -2 16 C-3.32 16 -4.64 16 -6 16 C-5.731875 15.38125 -5.46375 14.7625 -5.1875 14.125 C-3.81131955 10.50347251 -2.74671528 6.83305457 -1.68359375 3.109375 C-1 1 -1 1 0 0 Z " fill="#5E6063" transform="translate(193,176)"/>
<path d="M0 0 C0 4.29 0 8.58 0 13 C-5 11 -5 11 -6 10 C-6.41386733 6.27519405 -6.48847952 4.61874073 -4.125 1.625 C-2 0 -2 0 0 0 Z " fill="#FAFAFA" transform="translate(155,156)"/>
<path d="M0 0 C4.875 0.875 4.875 0.875 6 2 C6.30392154 4.88725465 6.41849029 6.42208484 4.6875 8.8125 C3 10 3 10 0 10 C0 6.7 0 3.4 0 0 Z " fill="#FAFAFA" transform="translate(161,175)"/>
<path d="M0 0 C4.95 0 9.9 0 15 0 C12 3 12 3 9.58984375 3.07421875 C8.71457031 2.94660156 7.83929688 2.81898438 6.9375 2.6875 C6.05964844 2.56761719 5.18179688 2.44773438 4.27734375 2.32421875 C3.52582031 2.21722656 2.77429688 2.11023438 2 2 C1.34 2 0.68 2 0 2 C0 1.34 0 0.68 0 0 Z " fill="#585A5E" transform="translate(156,174)"/>
</svg>
